_________________________  Visit us at _________________________
  
http://p2pdl.com  ____________________________  http://p2pdl.com


Any Day Now 2012 BRRip 720p x264 AAC - PRiSTiNE [P2PDL]

Genre: Drama
Plot: In the 1970s, a gay couple fights a biased legal 
system to keep custody of the abandoned mentally handicapped 
teenager that comes to live under their roof.
Director: Travis Fine
Stars: Alan Cumming, Garret Dillahunt, Isaac Leyva
Rated: Rated R for sexual content, language and some drug use

Info: 
http://www.imdb.com/title/tt2066176/


General
Complete name                  : Any Day Now 2012 BRRip 720p x264 AAC - PRiSTiNE.mp4
Format                         : MPEG-4
Format profile                 : Base Media
File size                      : 561 MiB
Duration                       : 1h 38mn
Overall bit rate mode          : Variable
Overall bit rate               : 800 Kbps

Video
Format                         : AVC
Format profile                 : High 10@L4.1
Bit rate                       : 721 Kbps
Width                          : 1 264 pixels
Height                         : 528 pixels
Display aspect ratio           : 2.40:1
Frame rate mode                : Constant
Frame rate                     : 23.976 fps
Bit depth                      : 10 bits
Stream size                    : 504 MiB (90%)
Writing library                : x264 core 130 r2273 b3065e6

Audio
Format                         : AAC
Bit rate mode                  : Variable
Bit rate                       : 78.6 Kbps
Channel(s)                     : 2 channels
Channel positions              : Front: L R
Sampling rate                  : 48.0 KHz / 24.0 KHz
Stream size                    : 54.2 MiB (10%)
Language                       : English

Subtitle                       : Yes (English)
Source                         : 720p.BluRay.X264-Japhson (Thanks)

Screens:
 
http://www.ultraimg.com/images/21mI.jpg 
http://www.ultraimg.com/images/bV48N.jpg 
http://www.ultraimg.com/images/kdXP.jpg 
http://www.ultraimg.com/images/c6IZi.jpg 
http://www.ultraimg.com/images/cVWPk.jpg

----------------------------------------------------------------------------------------------------


Encoded using revolutionary 10bit encoding, which enables us to provide you more crispier 
and sharper images at small sizes, just make sure you follow our instructions without a fault.
Recommend to you to use latest version of VLC player. Install K-Lite Codec Pack or shark007 codecs
in case of any kind of problem in playback (For non-VLC Media Player users). Alternatively, install
Core AVC codecs, the fastest decoder that there is coupled with Community Center Codec Pack and play
on Windows Media Player Classic. Check sample to be sure.
Enjoy!

Encoder Notes:Looking For Early Access To Anything You Can Provide DVDScr, R5, DVDR, BluRay, Direct
Audio, Music Releases and Seedboxes. We require dedicated servers, so as to do more 
and fast releases of movies.
If You Got anything to offer please contact us at "prg@hush.com".

Face book Fan Page:   
http://www.fb.me/p2pdl